solid inlet
  facet normal 0.000000e+00 0.000000e+00 1.000000e+00
    outer loop
      vertex   -2.500000e+00 2.464977e+00 3.200000e+00
      vertex   -2.766736e+00 2.197466e+00 3.200000e+00
      vertex   -2.500000e+00 2.197466e+00 3.200000e+00
    endloop
  endfacet
  facet normal 0.000000e+00 0.000000e+00 1.000000e+00
    outer loop
      vertex   -2.500000e+00 2.732488e+00 3.200000e+00
      vertex   -2.766736e+00 2.732488e+00 3.200000e+00
      vertex   -2.500000e+00 2.464977e+00 3.200000e+00
    endloop
  endfacet
  facet normal 0.000000e+00 0.000000e+00 1.000000e+00
    outer loop
      vertex   -3.300208e+00 2.464977e+00 3.200000e+00
      vertex   -3.566944e+00 2.464977e+00 3.200000e+00
      vertex   -3.300208e+00 2.197466e+00 3.200000e+00
    endloop
  endfacet
  facet normal 0.000000e+00 0.000000e+00 1.000000e+00
    outer loop
      vertex   -2.766736e+00 2.197466e+00 3.200000e+00
      vertex   -2.500000e+00 2.464977e+00 3.200000e+00
      vertex   -2.766736e+00 2.464977e+00 3.200000e+00
    endloop
  endfacet
  facet normal 0.000000e+00 0.000000e+00 1.000000e+00
    outer loop
      vertex   -3.033472e+00 1.929954e+00 3.200000e+00
      vertex   -2.766736e+00 2.197466e+00 3.200000e+00
      vertex   -3.033472e+00 2.197466e+00 3.200000e+00
    endloop
  endfacet
  facet normal 0.000000e+00 0.000000e+00 1.000000e+00
    outer loop
      vertex   -3.300208e+00 2.732488e+00 3.200000e+00
      vertex   -3.566944e+00 2.464977e+00 3.200000e+00
      vertex   -3.300208e+00 2.464977e+00 3.200000e+00
    endloop
  endfacet
  facet normal 0.000000e+00 0.000000e+00 1.000000e+00
    outer loop
      vertex   -3.033472e+00 2.732488e+00 3.200000e+00
      vertex   -3.300208e+00 2.732488e+00 3.200000e+00
      vertex   -3.033472e+00 2.464977e+00 3.200000e+00
    endloop
  endfacet
  facet normal 0.000000e+00 0.000000e+00 1.000000e+00
    outer loop
      vertex   -3.566944e+00 1.929954e+00 3.200000e+00
      vertex   -3.300208e+00 2.197466e+00 3.200000e+00
      vertex   -3.566944e+00 2.197466e+00 3.200000e+00
    endloop
  endfacet
  facet normal 0.000000e+00 0.000000e+00 1.000000e+00
    outer loop
      vertex   -3.033472e+00 3.000000e+00 3.200000e+00
      vertex   -3.300208e+00 2.732488e+00 3.200000e+00
      vertex   -3.033472e+00 2.732488e+00 3.200000e+00
    endloop
  endfacet
  facet normal 0.000000e+00 0.000000e+00 1.000000e+00
    outer loop
      vertex   -2.500000e+00 2.197466e+00 3.200000e+00
      vertex   -2.766736e+00 2.197466e+00 3.200000e+00
      vertex   -2.500000e+00 1.929954e+00 3.200000e+00
    endloop
  endfacet
  facet normal 0.000000e+00 0.000000e+00 1.000000e+00
    outer loop
      vertex   -2.500000e+00 3.000000e+00 3.200000e+00
      vertex   -2.766736e+00 2.732488e+00 3.200000e+00
      vertex   -2.500000e+00 2.732488e+00 3.200000e+00
    endloop
  endfacet
  facet normal 0.000000e+00 0.000000e+00 1.000000e+00
    outer loop
      vertex   -3.300208e+00 2.732488e+00 3.200000e+00
      vertex   -3.033472e+00 3.000000e+00 3.200000e+00
      vertex   -3.300208e+00 3.000000e+00 3.200000e+00
    endloop
  endfacet
  facet normal 0.000000e+00 0.000000e+00 1.000000e+00
    outer loop
      vertex   -3.300208e+00 1.929954e+00 3.200000e+00
      vertex   -3.033472e+00 1.929954e+00 3.200000e+00
      vertex   -3.300208e+00 2.197466e+00 3.200000e+00
    endloop
  endfacet
  facet normal 0.000000e+00 0.000000e+00 1.000000e+00
    outer loop
      vertex   -3.566944e+00 2.732488e+00 3.200000e+00
      vertex   -3.300208e+00 2.732488e+00 3.200000e+00
      vertex   -3.566944e+00 3.000000e+00 3.200000e+00
    endloop
  endfacet
  facet normal 0.000000e+00 0.000000e+00 1.000000e+00
    outer loop
      vertex   -2.766736e+00 2.197466e+00 3.200000e+00
      vertex   -3.033472e+00 1.929954e+00 3.200000e+00
      vertex   -2.766736e+00 1.929954e+00 3.200000e+00
    endloop
  endfacet
  facet normal 0.000000e+00 0.000000e+00 1.000000e+00
    outer loop
      vertex   -3.300208e+00 2.197466e+00 3.200000e+00
      vertex   -3.566944e+00 1.929954e+00 3.200000e+00
      vertex   -3.300208e+00 1.929954e+00 3.200000e+00
    endloop
  endfacet
  facet normal 0.000000e+00 0.000000e+00 1.000000e+00
    outer loop
      vertex   1.000000e+00 -5.000000e+00 3.200000e+00
      vertex   -6.694427e-02 -5.000000e+00 3.200000e+00
      vertex   1.000000e+00 -6.070046e+00 3.200000e+00
    endloop
  endfacet
  facet normal 0.000000e+00 0.000000e+00 1.000000e+00
    outer loop
      vertex   -2.766736e+00 2.732488e+00 3.200000e+00
      vertex   -2.500000e+00 3.000000e+00 3.200000e+00
      vertex   -2.766736e+00 3.000000e+00 3.200000e+00
    endloop
  endfacet
  facet normal 0.000000e+00 0.000000e+00 1.000000e+00
    outer loop
      vertex   -3.566944e+00 2.197466e+00 3.200000e+00
      vertex   -3.300208e+00 2.197466e+00 3.200000e+00
      vertex   -3.566944e+00 2.464977e+00 3.200000e+00
    endloop
  endfacet
  facet normal 0.000000e+00 0.000000e+00 1.000000e+00
    outer loop
      vertex   -3.300208e+00 3.000000e+00 3.200000e+00
      vertex   -3.566944e+00 3.000000e+00 3.200000e+00
      vertex   -3.300208e+00 2.732488e+00 3.200000e+00
    endloop
  endfacet
  facet normal 0.000000e+00 0.000000e+00 1.000000e+00
    outer loop
      vertex   -3.033472e+00 2.732488e+00 3.200000e+00
      vertex   -2.766736e+00 2.732488e+00 3.200000e+00
      vertex   -3.033472e+00 3.000000e+00 3.200000e+00
    endloop
  endfacet
  facet normal 0.000000e+00 0.000000e+00 1.000000e+00
    outer loop
      vertex   -3.300208e+00 2.197466e+00 3.200000e+00
      vertex   -3.033472e+00 2.464977e+00 3.200000e+00
      vertex   -3.300208e+00 2.464977e+00 3.200000e+00
    endloop
  endfacet
  facet normal 0.000000e+00 0.000000e+00 1.000000e+00
    outer loop
      vertex   -3.033472e+00 2.464977e+00 3.200000e+00
      vertex   -3.300208e+00 2.197466e+00 3.200000e+00
      vertex   -3.033472e+00 2.197466e+00 3.200000e+00
    endloop
  endfacet
  facet normal 0.000000e+00 0.000000e+00 1.000000e+00
    outer loop
      vertex   -3.566944e+00 2.464977e+00 3.200000e+00
      vertex   -3.300208e+00 2.732488e+00 3.200000e+00
      vertex   -3.566944e+00 2.732488e+00 3.200000e+00
    endloop
  endfacet
  facet normal 0.000000e+00 0.000000e+00 1.000000e+00
    outer loop
      vertex   -3.033472e+00 2.197466e+00 3.200000e+00
      vertex   -3.300208e+00 2.197466e+00 3.200000e+00
      vertex   -3.033472e+00 1.929954e+00 3.200000e+00
    endloop
  endfacet
  facet normal 0.000000e+00 0.000000e+00 1.000000e+00
    outer loop
      vertex   -3.033472e+00 2.197466e+00 3.200000e+00
      vertex   -2.766736e+00 2.197466e+00 3.200000e+00
      vertex   -3.033472e+00 2.464977e+00 3.200000e+00
    endloop
  endfacet
  facet normal 0.000000e+00 0.000000e+00 1.000000e+00
    outer loop
      vertex   -2.766736e+00 2.464977e+00 3.200000e+00
      vertex   -2.500000e+00 2.464977e+00 3.200000e+00
      vertex   -2.766736e+00 2.732488e+00 3.200000e+00
    endloop
  endfacet
  facet normal 0.000000e+00 0.000000e+00 1.000000e+00
    outer loop
      vertex   -2.766736e+00 2.464977e+00 3.200000e+00
      vertex   -3.033472e+00 2.464977e+00 3.200000e+00
      vertex   -2.766736e+00 2.197466e+00 3.200000e+00
    endloop
  endfacet
  facet normal 0.000000e+00 0.000000e+00 1.000000e+00
    outer loop
      vertex   -2.766736e+00 3.000000e+00 3.200000e+00
      vertex   -3.033472e+00 3.000000e+00 3.200000e+00
      vertex   -2.766736e+00 2.732488e+00 3.200000e+00
    endloop
  endfacet
  facet normal 0.000000e+00 0.000000e+00 1.000000e+00
    outer loop
      vertex   -3.566944e+00 -6.070046e+00 3.200000e+00
      vertex   -2.500000e+00 -6.070046e+00 3.200000e+00
      vertex   -3.566944e+00 -5.000000e+00 3.200000e+00
    endloop
  endfacet
  facet normal 0.000000e+00 0.000000e+00 1.000000e+00
    outer loop
      vertex   -3.033472e+00 2.464977e+00 3.200000e+00
      vertex   -2.766736e+00 2.732488e+00 3.200000e+00
      vertex   -3.033472e+00 2.732488e+00 3.200000e+00
    endloop
  endfacet
  facet normal 0.000000e+00 0.000000e+00 1.000000e+00
    outer loop
      vertex   -2.766736e+00 2.732488e+00 3.200000e+00
      vertex   -3.033472e+00 2.464977e+00 3.200000e+00
      vertex   -2.766736e+00 2.464977e+00 3.200000e+00
    endloop
  endfacet
  facet normal 0.000000e+00 0.000000e+00 1.000000e+00
    outer loop
      vertex   -6.694427e-02 -6.070046e+00 3.200000e+00
      vertex   1.000000e+00 -6.070046e+00 3.200000e+00
      vertex   -6.694427e-02 -5.000000e+00 3.200000e+00
    endloop
  endfacet
  facet normal 0.000000e+00 0.000000e+00 1.000000e+00
    outer loop
      vertex   -2.500000e+00 -5.000000e+00 3.200000e+00
      vertex   -3.566944e+00 -5.000000e+00 3.200000e+00
      vertex   -2.500000e+00 -6.070046e+00 3.200000e+00
    endloop
  endfacet
  facet normal 0.000000e+00 0.000000e+00 1.000000e+00
    outer loop
      vertex   -6.694427e-02 1.929954e+00 3.200000e+00
      vertex   1.000000e+00 1.929954e+00 3.200000e+00
      vertex   -6.694427e-02 3.000000e+00 3.200000e+00
    endloop
  endfacet
  facet normal 0.000000e+00 0.000000e+00 1.000000e+00
    outer loop
      vertex   1.000000e+00 3.000000e+00 3.200000e+00
      vertex   -6.694427e-02 3.000000e+00 3.200000e+00
      vertex   1.000000e+00 1.929954e+00 3.200000e+00
    endloop
  endfacet
  facet normal 0.000000e+00 0.000000e+00 1.000000e+00
    outer loop
      vertex   -3.300208e+00 2.464977e+00 3.200000e+00
      vertex   -3.033472e+00 2.464977e+00 3.200000e+00
      vertex   -3.300208e+00 2.732488e+00 3.200000e+00
    endloop
  endfacet
  facet normal 0.000000e+00 0.000000e+00 1.000000e+00
    outer loop
      vertex   -2.766736e+00 1.929954e+00 3.200000e+00
      vertex   -2.500000e+00 1.929954e+00 3.200000e+00
      vertex   -2.766736e+00 2.197466e+00 3.200000e+00
    endloop
  endfacet
endsolid inlet
