solid outlet
  facet normal -1.000000e+00 0.000000e+00 0.000000e+00
    outer loop
      vertex   -5.096311e+00 -4.056857e+00 3.009546e-01
      vertex   -5.096311e+00 -1.455546e+00 2.750253e-01
      vertex   -5.096311e+00 -4.056857e+00 2.490960e-01
    endloop
  endfacet
  facet normal -1.000000e+00 0.000000e+00 0.000000e+00
    outer loop
      vertex   -5.096311e+00 -4.056857e+00 2.231667e-01
      vertex   -5.096311e+00 -6.658167e+00 2.231667e-01
      vertex   -5.096311e+00 -4.056857e+00 2.490960e-01
    endloop
  endfacet
  facet normal -1.000000e+00 0.000000e+00 0.000000e+00
    outer loop
      vertex   -5.096311e+00 1.145764e+00 2.490960e-01
      vertex   -5.096311e+00 3.747075e+00 2.231667e-01
      vertex   -5.096311e+00 1.145764e+00 2.231667e-01
    endloop
  endfacet
  facet normal -1.000000e+00 0.000000e+00 0.000000e+00
    outer loop
      vertex   -5.096311e+00 1.145764e+00 3.009546e-01
      vertex   -5.096311e+00 -1.455546e+00 3.268839e-01
      vertex   -5.096311e+00 1.145764e+00 3.268839e-01
    endloop
  endfacet
  facet normal -1.000000e+00 0.000000e+00 0.000000e+00
    outer loop
      vertex   -5.096311e+00 -4.056857e+00 2.490960e-01
      vertex   -5.096311e+00 -1.455546e+00 2.231667e-01
      vertex   -5.096311e+00 -4.056857e+00 2.231667e-01
    endloop
  endfacet
  facet normal -1.000000e+00 0.000000e+00 0.000000e+00
    outer loop
      vertex   -5.096311e+00 -4.056857e+00 3.268839e-01
      vertex   -5.096311e+00 -1.455546e+00 3.268839e-01
      vertex   -5.096311e+00 -4.056857e+00 3.009546e-01
    endloop
  endfacet
  facet normal -1.000000e+00 0.000000e+00 0.000000e+00
    outer loop
      vertex   -5.096311e+00 3.747075e+00 2.231667e-01
      vertex   -5.096311e+00 1.145764e+00 2.490960e-01
      vertex   -5.096311e+00 3.747075e+00 3.268839e-01
    endloop
  endfacet
  facet normal -1.000000e+00 -0.000000e+00 0.000000e+00
    outer loop
      vertex   -5.096311e+00 -4.056857e+00 2.490960e-01
      vertex   -5.096311e+00 -6.658167e+00 2.231667e-01
      vertex   -5.096311e+00 -4.056857e+00 3.009546e-01
    endloop
  endfacet
  facet normal -1.000000e+00 0.000000e+00 0.000000e+00
    outer loop
      vertex   -5.096311e+00 1.145764e+00 3.009546e-01
      vertex   -5.096311e+00 3.747075e+00 3.268839e-01
      vertex   -5.096311e+00 1.145764e+00 2.490960e-01
    endloop
  endfacet
  facet normal -1.000000e+00 0.000000e+00 0.000000e+00
    outer loop
      vertex   -5.096311e+00 -6.658167e+00 3.268839e-01
      vertex   -5.096311e+00 -4.056857e+00 3.009546e-01
      vertex   -5.096311e+00 -6.658167e+00 2.231667e-01
    endloop
  endfacet
  facet normal -1.000000e+00 0.000000e+00 0.000000e+00
    outer loop
      vertex   -5.096311e+00 -1.455546e+00 2.750253e-01
      vertex   -5.096311e+00 1.145764e+00 2.490960e-01
      vertex   -5.096311e+00 -1.455546e+00 2.231667e-01
    endloop
  endfacet
  facet normal -1.000000e+00 0.000000e+00 0.000000e+00
    outer loop
      vertex   -5.096311e+00 -1.455546e+00 2.231667e-01
      vertex   -5.096311e+00 -4.056857e+00 2.490960e-01
      vertex   -5.096311e+00 -1.455546e+00 2.750253e-01
    endloop
  endfacet
  facet normal -1.000000e+00 0.000000e+00 0.000000e+00
    outer loop
      vertex   -5.096311e+00 1.145764e+00 3.268839e-01
      vertex   -5.096311e+00 3.747075e+00 3.268839e-01
      vertex   -5.096311e+00 1.145764e+00 3.009546e-01
    endloop
  endfacet
  facet normal -1.000000e+00 0.000000e+00 0.000000e+00
    outer loop
      vertex   -5.096311e+00 1.145764e+00 2.231667e-01
      vertex   -5.096311e+00 -1.455546e+00 2.231667e-01
      vertex   -5.096311e+00 1.145764e+00 2.490960e-01
    endloop
  endfacet
  facet normal -1.000000e+00 0.000000e+00 0.000000e+00
    outer loop
      vertex   -5.096311e+00 -1.455546e+00 2.750253e-01
      vertex   -5.096311e+00 -4.056857e+00 3.009546e-01
      vertex   -5.096311e+00 -1.455546e+00 3.268839e-01
    endloop
  endfacet
  facet normal -1.000000e+00 0.000000e+00 0.000000e+00
    outer loop
      vertex   -5.096311e+00 -1.455546e+00 3.268839e-01
      vertex   -5.096311e+00 1.145764e+00 3.009546e-01
      vertex   -5.096311e+00 -1.455546e+00 2.750253e-01
    endloop
  endfacet
  facet normal -1.000000e+00 0.000000e+00 0.000000e+00
    outer loop
      vertex   -5.096311e+00 1.145764e+00 2.490960e-01
      vertex   -5.096311e+00 -1.455546e+00 2.750253e-01
      vertex   -5.096311e+00 1.145764e+00 3.009546e-01
    endloop
  endfacet
  facet normal -1.000000e+00 0.000000e+00 0.000000e+00
    outer loop
      vertex   -5.096311e+00 -4.056857e+00 3.009546e-01
      vertex   -5.096311e+00 -6.658167e+00 3.268839e-01
      vertex   -5.096311e+00 -4.056857e+00 3.268839e-01
    endloop
  endfacet
  facet normal 0.000000e+00 1.000000e+00 0.000000e+00
    outer loop
      vertex   1.948874e+00 3.999999e+00 3.360606e-01
      vertex   -1.448409e+00 3.999999e+00 2.737252e-01
      vertex   -1.448409e+00 3.999999e+00 3.360606e-01
    endloop
  endfacet
  facet normal 0.000000e+00 1.000000e+00 0.000000e+00
    outer loop
      vertex   -1.448409e+00 3.999999e+00 2.113897e-01
      vertex   -1.448409e+00 3.999999e+00 2.737252e-01
      vertex   1.948874e+00 3.999999e+00 2.113897e-01
    endloop
  endfacet
  facet normal 0.000000e+00 1.000000e+00 0.000000e+00
    outer loop
      vertex   1.948874e+00 3.999999e+00 3.360606e-01
      vertex   1.948874e+00 3.999999e+00 2.113897e-01
      vertex   -1.448409e+00 3.999999e+00 2.737252e-01
    endloop
  endfacet
  facet normal 0.000000e+00 1.000000e+00 0.000000e+00
    outer loop
      vertex   -1.448409e+00 3.999999e+00 3.360606e-01
      vertex   -1.448409e+00 3.999999e+00 2.737252e-01
      vertex   -4.845693e+00 3.999999e+00 3.360606e-01
    endloop
  endfacet
  facet normal 0.000000e+00 1.000000e+00 0.000000e+00
    outer loop
      vertex   -4.845693e+00 3.999999e+00 2.113897e-01
      vertex   -4.845693e+00 3.999999e+00 3.360606e-01
      vertex   -1.448409e+00 3.999999e+00 2.737252e-01
    endloop
  endfacet
  facet normal 0.000000e+00 1.000000e+00 0.000000e+00
    outer loop
      vertex   -4.845693e+00 3.999999e+00 2.113897e-01
      vertex   -1.448409e+00 3.999999e+00 2.737252e-01
      vertex   -1.448409e+00 3.999999e+00 2.113897e-01
    endloop
  endfacet
  facet normal 1.000000e+00 0.000000e+00 0.000000e+00
    outer loop
      vertex   2.203689e+00 -6.658167e+00 2.231667e-01
      vertex   2.203689e+00 -4.056857e+00 2.490960e-01
      vertex   2.203689e+00 -6.658167e+00 3.268839e-01
    endloop
  endfacet
  facet normal 1.000000e+00 0.000000e+00 0.000000e+00
    outer loop
      vertex   2.203689e+00 -1.455546e+00 3.268839e-01
      vertex   2.203689e+00 -4.056857e+00 3.009546e-01
      vertex   2.203689e+00 -1.455546e+00 2.750253e-01
    endloop
  endfacet
  facet normal 1.000000e+00 0.000000e+00 0.000000e+00
    outer loop
      vertex   2.203689e+00 -4.056857e+00 3.009546e-01
      vertex   2.203689e+00 -1.455546e+00 3.268839e-01
      vertex   2.203689e+00 -4.056857e+00 3.268839e-01
    endloop
  endfacet
  facet normal 1.000000e+00 0.000000e+00 0.000000e+00
    outer loop
      vertex   2.203689e+00 -4.056857e+00 2.490960e-01
      vertex   2.203689e+00 -1.455546e+00 2.750253e-01
      vertex   2.203689e+00 -4.056857e+00 3.009546e-01
    endloop
  endfacet
  facet normal 1.000000e+00 0.000000e+00 0.000000e+00
    outer loop
      vertex   2.203689e+00 1.145764e+00 3.009546e-01
      vertex   2.203689e+00 -1.455546e+00 2.750253e-01
      vertex   2.203689e+00 1.145764e+00 2.490960e-01
    endloop
  endfacet
  facet normal 1.000000e+00 0.000000e+00 0.000000e+00
    outer loop
      vertex   2.203689e+00 -1.455546e+00 2.750253e-01
      vertex   2.203689e+00 1.145764e+00 3.009546e-01
      vertex   2.203689e+00 -1.455546e+00 3.268839e-01
    endloop
  endfacet
  facet normal 1.000000e+00 0.000000e+00 0.000000e+00
    outer loop
      vertex   2.203689e+00 1.145764e+00 2.231667e-01
      vertex   2.203689e+00 3.747075e+00 2.231667e-01
      vertex   2.203689e+00 1.145764e+00 2.490960e-01
    endloop
  endfacet
  facet normal 1.000000e+00 0.000000e+00 0.000000e+00
    outer loop
      vertex   2.203689e+00 1.145764e+00 2.490960e-01
      vertex   2.203689e+00 -1.455546e+00 2.231667e-01
      vertex   2.203689e+00 1.145764e+00 2.231667e-01
    endloop
  endfacet
  facet normal 1.000000e+00 0.000000e+00 0.000000e+00
    outer loop
      vertex   2.203689e+00 -4.056857e+00 3.009546e-01
      vertex   2.203689e+00 -6.658167e+00 3.268839e-01
      vertex   2.203689e+00 -4.056857e+00 2.490960e-01
    endloop
  endfacet
  facet normal 1.000000e+00 -0.000000e+00 0.000000e+00
    outer loop
      vertex   2.203689e+00 1.145764e+00 2.490960e-01
      vertex   2.203689e+00 3.747075e+00 2.231667e-01
      vertex   2.203689e+00 1.145764e+00 3.009546e-01
    endloop
  endfacet
  facet normal 1.000000e+00 0.000000e+00 0.000000e+00
    outer loop
      vertex   2.203689e+00 1.145764e+00 3.268839e-01
      vertex   2.203689e+00 -1.455546e+00 3.268839e-01
      vertex   2.203689e+00 1.145764e+00 3.009546e-01
    endloop
  endfacet
  facet normal 1.000000e+00 0.000000e+00 0.000000e+00
    outer loop
      vertex   2.203689e+00 1.145764e+00 3.009546e-01
      vertex   2.203689e+00 3.747075e+00 3.268839e-01
      vertex   2.203689e+00 1.145764e+00 3.268839e-01
    endloop
  endfacet
  facet normal 1.000000e+00 0.000000e+00 0.000000e+00
    outer loop
      vertex   2.203689e+00 3.747075e+00 3.268839e-01
      vertex   2.203689e+00 1.145764e+00 3.009546e-01
      vertex   2.203689e+00 3.747075e+00 2.231667e-01
    endloop
  endfacet
  facet normal 1.000000e+00 0.000000e+00 0.000000e+00
    outer loop
      vertex   2.203689e+00 -4.056857e+00 2.231667e-01
      vertex   2.203689e+00 -1.455546e+00 2.231667e-01
      vertex   2.203689e+00 -4.056857e+00 2.490960e-01
    endloop
  endfacet
  facet normal 1.000000e+00 0.000000e+00 0.000000e+00
    outer loop
      vertex   2.203689e+00 -4.056857e+00 2.490960e-01
      vertex   2.203689e+00 -6.658167e+00 2.231667e-01
      vertex   2.203689e+00 -4.056857e+00 2.231667e-01
    endloop
  endfacet
  facet normal 1.000000e+00 0.000000e+00 0.000000e+00
    outer loop
      vertex   2.203689e+00 -1.455546e+00 2.750253e-01
      vertex   2.203689e+00 -4.056857e+00 2.490960e-01
      vertex   2.203689e+00 -1.455546e+00 2.231667e-01
    endloop
  endfacet
  facet normal 1.000000e+00 0.000000e+00 0.000000e+00
    outer loop
      vertex   2.203689e+00 -1.455546e+00 2.231667e-01
      vertex   2.203689e+00 1.145764e+00 2.490960e-01
      vertex   2.203689e+00 -1.455546e+00 2.750253e-01
    endloop
  endfacet
  facet normal 1.000000e+00 0.000000e+00 0.000000e+00
    outer loop
      vertex   2.203689e+00 -4.056857e+00 3.268839e-01
      vertex   2.203689e+00 -6.658167e+00 3.268839e-01
      vertex   2.203689e+00 -4.056857e+00 3.009546e-01
    endloop
  endfacet
endsolid outlet
