solid ASCII
  facet normal -0.000000e+00 0.000000e+00 1.000000e+00
    outer loop
      vertex   -3.566944e+00 1.929954e+00 3.100000e+00
      vertex   -2.500000e+00 -5.000000e+00 3.100000e+00
      vertex   -2.500000e+00 1.929954e+00 3.100000e+00
    endloop
  endfacet
  facet normal 0.000000e+00 0.000000e+00 1.000000e+00
    outer loop
      vertex   -2.500000e+00 1.929954e+00 3.100000e+00
      vertex   -2.500000e+00 -5.000000e+00 3.100000e+00
      vertex   -6.694426e-02 -5.000000e+00 3.100000e+00
    endloop
  endfacet
  facet normal -0.000000e+00 0.000000e+00 1.000000e+00
    outer loop
      vertex   -2.500000e+00 1.929954e+00 3.100000e+00
      vertex   -6.694426e-02 -5.000000e+00 3.100000e+00
      vertex   -6.694426e-02 1.929954e+00 3.100000e+00
    endloop
  endfacet
  facet normal 0.000000e+00 0.000000e+00 1.000000e+00
    outer loop
      vertex   -6.694426e-02 1.929954e+00 3.100000e+00
      vertex   -6.694426e-02 -5.000000e+00 3.100000e+00
      vertex   1.000000e+00 -5.000000e+00 3.100000e+00
    endloop
  endfacet
  facet normal -0.000000e+00 0.000000e+00 1.000000e+00
    outer loop
      vertex   -6.694426e-02 1.929954e+00 3.100000e+00
      vertex   1.000000e+00 -5.000000e+00 3.100000e+00
      vertex   1.000000e+00 1.929954e+00 3.100000e+00
    endloop
  endfacet
  facet normal 0.000000e+00 0.000000e+00 1.000000e+00
    outer loop
      vertex   1.000000e+00 1.929954e+00 3.100000e+00
      vertex   1.000000e+00 -5.000000e+00 3.100000e+00
      vertex   2.124988e+00 -6.799021e+00 3.100000e+00
    endloop
  endfacet
  facet normal -0.000000e+00 0.000000e+00 1.000000e+00
    outer loop
      vertex   1.000000e+00 1.929954e+00 3.100000e+00
      vertex   2.124988e+00 -6.799021e+00 3.100000e+00
      vertex   2.124988e+00 3.840979e+00 3.100000e+00
    endloop
  endfacet
  facet normal 0.000000e+00 0.000000e+00 1.000000e+00
    outer loop
      vertex   -3.566944e+00 3.000000e+00 3.100000e+00
      vertex   -4.996311e+00 3.840979e+00 3.100000e+00
      vertex   -3.566944e+00 1.929954e+00 3.100000e+00
    endloop
  endfacet
  facet normal 0.000000e+00 0.000000e+00 1.000000e+00
    outer loop
      vertex   -3.566944e+00 1.929954e+00 3.100000e+00
      vertex   -4.996311e+00 3.840979e+00 3.100000e+00
      vertex   -4.996311e+00 -6.799021e+00 3.100000e+00
    endloop
  endfacet
  facet normal 0.000000e+00 0.000000e+00 1.000000e+00
    outer loop
      vertex   -3.566944e+00 1.929954e+00 3.100000e+00
      vertex   -4.996311e+00 -6.799021e+00 3.100000e+00
      vertex   -3.566944e+00 -5.000000e+00 3.100000e+00
    endloop
  endfacet
  facet normal 0.000000e+00 0.000000e+00 1.000000e+00
    outer loop
      vertex   -3.566944e+00 -5.000000e+00 3.100000e+00
      vertex   -4.996311e+00 -6.799021e+00 3.100000e+00
      vertex   -3.566944e+00 -6.070046e+00 3.100000e+00
    endloop
  endfacet
  facet normal -0.000000e+00 0.000000e+00 1.000000e+00
    outer loop
      vertex   -3.566944e+00 -6.070046e+00 3.100000e+00
      vertex   -4.996311e+00 -6.799021e+00 3.100000e+00
      vertex   -2.500000e+00 -6.070046e+00 3.100000e+00
    endloop
  endfacet
  facet normal 0.000000e+00 0.000000e+00 1.000000e+00
    outer loop
      vertex   -2.500000e+00 -6.070046e+00 3.100000e+00
      vertex   -4.996311e+00 -6.799021e+00 3.100000e+00
      vertex   2.124988e+00 -6.799021e+00 3.100000e+00
    endloop
  endfacet
  facet normal -0.000000e+00 0.000000e+00 1.000000e+00
    outer loop
      vertex   -2.500000e+00 -6.070046e+00 3.100000e+00
      vertex   2.124988e+00 -6.799021e+00 3.100000e+00
      vertex   -6.694426e-02 -6.070046e+00 3.100000e+00
    endloop
  endfacet
  facet normal -0.000000e+00 0.000000e+00 1.000000e+00
    outer loop
      vertex   -6.694426e-02 -6.070046e+00 3.100000e+00
      vertex   2.124988e+00 -6.799021e+00 3.100000e+00
      vertex   1.000000e+00 -6.070046e+00 3.100000e+00
    endloop
  endfacet
  facet normal -0.000000e+00 0.000000e+00 1.000000e+00
    outer loop
      vertex   1.000000e+00 -6.070046e+00 3.100000e+00
      vertex   2.124988e+00 -6.799021e+00 3.100000e+00
      vertex   1.000000e+00 -5.000000e+00 3.100000e+00
    endloop
  endfacet
  facet normal 0.000000e+00 -0.000000e+00 1.000000e+00
    outer loop
      vertex   -3.566944e+00 3.000000e+00 3.100000e+00
      vertex   -2.500000e+00 3.000000e+00 3.100000e+00
      vertex   -4.996311e+00 3.840979e+00 3.100000e+00
    endloop
  endfacet
  facet normal -0.000000e+00 0.000000e+00 1.000000e+00
    outer loop
      vertex   -4.996311e+00 3.840979e+00 3.100000e+00
      vertex   -2.500000e+00 3.000000e+00 3.100000e+00
      vertex   2.124988e+00 3.840979e+00 3.100000e+00
    endloop
  endfacet
  facet normal 0.000000e+00 0.000000e+00 1.000000e+00
    outer loop
      vertex   2.124988e+00 3.840979e+00 3.100000e+00
      vertex   -2.500000e+00 3.000000e+00 3.100000e+00
      vertex   -6.694426e-02 3.000000e+00 3.100000e+00
    endloop
  endfacet
  facet normal 0.000000e+00 0.000000e+00 1.000000e+00
    outer loop
      vertex   2.124988e+00 3.840979e+00 3.100000e+00
      vertex   -6.694426e-02 3.000000e+00 3.100000e+00
      vertex   1.000000e+00 3.000000e+00 3.100000e+00
    endloop
  endfacet
  facet normal 0.000000e+00 0.000000e+00 1.000000e+00
    outer loop
      vertex   -6.694426e-02 3.000000e+00 3.100000e+00
      vertex   -2.500000e+00 3.000000e+00 3.100000e+00
      vertex   -6.694426e-02 1.929954e+00 3.100000e+00
    endloop
  endfacet
  facet normal 0.000000e+00 0.000000e+00 1.000000e+00
    outer loop
      vertex   -6.694426e-02 1.929954e+00 3.100000e+00
      vertex   -2.500000e+00 3.000000e+00 3.100000e+00
      vertex   -2.500000e+00 1.929954e+00 3.100000e+00
    endloop
  endfacet
  facet normal 0.000000e+00 0.000000e+00 1.000000e+00
    outer loop
      vertex   -3.566944e+00 -5.000000e+00 3.100000e+00
      vertex   -2.500000e+00 -5.000000e+00 3.100000e+00
      vertex   -3.566944e+00 1.929954e+00 3.100000e+00
    endloop
  endfacet
  facet normal 0.000000e+00 0.000000e+00 1.000000e+00
    outer loop
      vertex   -6.694426e-02 -5.000000e+00 3.100000e+00
      vertex   -2.500000e+00 -5.000000e+00 3.100000e+00
      vertex   -6.694426e-02 -6.070046e+00 3.100000e+00
    endloop
  endfacet
  facet normal 0.000000e+00 0.000000e+00 1.000000e+00
    outer loop
      vertex   -6.694426e-02 -6.070046e+00 3.100000e+00
      vertex   -2.500000e+00 -5.000000e+00 3.100000e+00
      vertex   -2.500000e+00 -6.070046e+00 3.100000e+00
    endloop
  endfacet
  facet normal -0.000000e+00 0.000000e+00 1.000000e+00
    outer loop
      vertex   1.000000e+00 3.000000e+00 3.100000e+00
      vertex   1.000000e+00 1.929954e+00 3.100000e+00
      vertex   2.124988e+00 3.840979e+00 3.100000e+00
    endloop
  endfacet
  facet normal 0.000000e+00 -1.000000e+00 8.563460e-15
    outer loop
      vertex   2.124988e+00 -6.658167e+00 3.268839e-01
      vertex   2.124988e+00 -6.658167e+00 2.231667e-01
      vertex   2.203689e+00 -6.658167e+00 3.268839e-01
    endloop
  endfacet
  facet normal 0.000000e+00 -1.000000e+00 8.563460e-15
    outer loop
      vertex   2.203689e+00 -6.658167e+00 3.268839e-01
      vertex   2.124988e+00 -6.658167e+00 2.231667e-01
      vertex   2.203689e+00 -6.658167e+00 2.231667e-01
    endloop
  endfacet
  facet normal 0.000000e+00 0.000000e+00 -1.000000e+00
    outer loop
      vertex   2.124988e+00 -6.658167e+00 2.231667e-01
      vertex   2.124988e+00 3.747074e+00 2.231667e-01
      vertex   2.203689e+00 -6.658167e+00 2.231667e-01
    endloop
  endfacet
  facet normal 0.000000e+00 0.000000e+00 -1.000000e+00
    outer loop
      vertex   2.203689e+00 -6.658167e+00 2.231667e-01
      vertex   2.124988e+00 3.747074e+00 2.231667e-01
      vertex   2.203689e+00 3.747074e+00 2.231667e-01
    endloop
  endfacet
  facet normal 0.000000e+00 0.000000e+00 1.000000e+00
    outer loop
      vertex   2.124988e+00 3.747074e+00 3.268839e-01
      vertex   2.124988e+00 -6.658167e+00 3.268839e-01
      vertex   2.203689e+00 3.747074e+00 3.268839e-01
    endloop
  endfacet
  facet normal 0.000000e+00 0.000000e+00 1.000000e+00
    outer loop
      vertex   2.203689e+00 3.747074e+00 3.268839e-01
      vertex   2.124988e+00 -6.658167e+00 3.268839e-01
      vertex   2.203689e+00 -6.658167e+00 3.268839e-01
    endloop
  endfacet
  facet normal 0.000000e+00 -0.000000e+00 1.000000e+00
    outer loop
      vertex   -4.996311e+00 -6.658167e+00 3.268839e-01
      vertex   -4.996311e+00 3.747074e+00 3.268839e-01
      vertex   -5.096311e+00 -6.658167e+00 3.268839e-01
    endloop
  endfacet
  facet normal 0.000000e+00 0.000000e+00 1.000000e+00
    outer loop
      vertex   -5.096311e+00 -6.658167e+00 3.268839e-01
      vertex   -4.996311e+00 3.747074e+00 3.268839e-01
      vertex   -5.096311e+00 3.747074e+00 3.268839e-01
    endloop
  endfacet
  facet normal 1.692836e-14 1.000000e+00 -0.000000e+00
    outer loop
      vertex   2.124988e+00 3.747074e+00 2.231667e-01
      vertex   2.124988e+00 3.747074e+00 3.268839e-01
      vertex   2.203689e+00 3.747074e+00 2.231667e-01
    endloop
  endfacet
  facet normal 1.692836e-14 1.000000e+00 -0.000000e+00
    outer loop
      vertex   2.203689e+00 3.747074e+00 2.231667e-01
      vertex   2.124988e+00 3.747074e+00 3.268839e-01
      vertex   2.203689e+00 3.747074e+00 3.268839e-01
    endloop
  endfacet
  facet normal -1.332268e-14 1.000000e+00 0.000000e+00
    outer loop
      vertex   -4.996311e+00 3.747074e+00 3.268839e-01
      vertex   -4.996311e+00 3.747074e+00 2.231667e-01
      vertex   -5.096311e+00 3.747074e+00 3.268839e-01
    endloop
  endfacet
  facet normal -1.332268e-14 1.000000e+00 0.000000e+00
    outer loop
      vertex   -5.096311e+00 3.747074e+00 3.268839e-01
      vertex   -4.996311e+00 3.747074e+00 2.231667e-01
      vertex   -5.096311e+00 3.747074e+00 2.231667e-01
    endloop
  endfacet
  facet normal 1.000000e+00 0.000000e+00 -0.000000e+00
    outer loop
      vertex   2.203689e+00 3.747074e+00 2.231667e-01
      vertex   2.203689e+00 3.747074e+00 3.268839e-01
      vertex   2.203689e+00 -6.658167e+00 2.231667e-01
    endloop
  endfacet
  facet normal 1.000000e+00 0.000000e+00 0.000000e+00
    outer loop
      vertex   2.203689e+00 -6.658167e+00 2.231667e-01
      vertex   2.203689e+00 3.747074e+00 3.268839e-01
      vertex   2.203689e+00 -6.658167e+00 3.268839e-01
    endloop
  endfacet
  facet normal 0.000000e+00 -1.000000e+00 8.563460e-15
    outer loop
      vertex   -4.996311e+00 -6.658167e+00 2.231667e-01
      vertex   -4.996311e+00 -6.658167e+00 3.268839e-01
      vertex   -5.096311e+00 -6.658167e+00 2.231667e-01
    endloop
  endfacet
  facet normal 0.000000e+00 -1.000000e+00 8.563460e-15
    outer loop
      vertex   -5.096311e+00 -6.658167e+00 2.231667e-01
      vertex   -4.996311e+00 -6.658167e+00 3.268839e-01
      vertex   -5.096311e+00 -6.658167e+00 3.268839e-01
    endloop
  endfacet
  facet normal 0.000000e+00 -0.000000e+00 -1.000000e+00
    outer loop
      vertex   -4.996311e+00 3.747074e+00 2.231667e-01
      vertex   -4.996311e+00 -6.658167e+00 2.231667e-01
      vertex   -5.096311e+00 3.747074e+00 2.231667e-01
    endloop
  endfacet
  facet normal 0.000000e+00 0.000000e+00 -1.000000e+00
    outer loop
      vertex   -5.096311e+00 3.747074e+00 2.231667e-01
      vertex   -4.996311e+00 -6.658167e+00 2.231667e-01
      vertex   -5.096311e+00 -6.658167e+00 2.231667e-01
    endloop
  endfacet
  facet normal -1.000000e+00 0.000000e+00 0.000000e+00
    outer loop
      vertex   -5.096311e+00 -6.658167e+00 2.231667e-01
      vertex   -5.096311e+00 -6.658167e+00 3.268839e-01
      vertex   -5.096311e+00 3.747074e+00 2.231667e-01
    endloop
  endfacet
  facet normal -1.000000e+00 0.000000e+00 0.000000e+00
    outer loop
      vertex   -5.096311e+00 3.747074e+00 2.231667e-01
      vertex   -5.096311e+00 -6.658167e+00 3.268839e-01
      vertex   -5.096311e+00 3.747074e+00 3.268839e-01
    endloop
  endfacet
  facet normal 1.000000e+00 0.000000e+00 -0.000000e+00
    outer loop
      vertex   1.948874e+00 -6.799021e+00 2.113897e-01
      vertex   1.948874e+00 -6.799021e+00 3.360606e-01
      vertex   1.948874e+00 -7.000000e+00 2.113897e-01
    endloop
  endfacet
  facet normal 1.000000e+00 0.000000e+00 0.000000e+00
    outer loop
      vertex   1.948874e+00 -7.000000e+00 2.113897e-01
      vertex   1.948874e+00 -6.799021e+00 3.360606e-01
      vertex   1.948874e+00 -7.000000e+00 3.360606e-01
    endloop
  endfacet
  facet normal 0.000000e+00 0.000000e+00 1.000000e+00
    outer loop
      vertex   1.948874e+00 -6.799021e+00 3.360606e-01
      vertex   -4.845693e+00 -6.799021e+00 3.360606e-01
      vertex   1.948874e+00 -7.000000e+00 3.360606e-01
    endloop
  endfacet
  facet normal 0.000000e+00 0.000000e+00 1.000000e+00
    outer loop
      vertex   1.948874e+00 -7.000000e+00 3.360606e-01
      vertex   -4.845693e+00 -6.799021e+00 3.360606e-01
      vertex   -4.845693e+00 -7.000000e+00 3.360606e-01
    endloop
  endfacet
  facet normal 0.000000e+00 0.000000e+00 -1.000000e+00
    outer loop
      vertex   -4.845693e+00 -6.799021e+00 2.113897e-01
      vertex   1.948874e+00 -6.799021e+00 2.113897e-01
      vertex   -4.845693e+00 -7.000000e+00 2.113897e-01
    endloop
  endfacet
  facet normal 0.000000e+00 0.000000e+00 -1.000000e+00
    outer loop
      vertex   -4.845693e+00 -7.000000e+00 2.113897e-01
      vertex   1.948874e+00 -6.799021e+00 2.113897e-01
      vertex   1.948874e+00 -7.000000e+00 2.113897e-01
    endloop
  endfacet
  facet normal 0.000000e+00 0.000000e+00 -1.000000e+00
    outer loop
      vertex   1.948874e+00 3.840979e+00 2.113897e-01
      vertex   -4.845693e+00 3.840979e+00 2.113897e-01
      vertex   1.948874e+00 4.000000e+00 2.113897e-01
    endloop
  endfacet
  facet normal -0.000000e+00 0.000000e+00 -1.000000e+00
    outer loop
      vertex   1.948874e+00 4.000000e+00 2.113897e-01
      vertex   -4.845693e+00 3.840979e+00 2.113897e-01
      vertex   -4.845693e+00 4.000000e+00 2.113897e-01
    endloop
  endfacet
  facet normal -1.000000e+00 -0.000000e+00 -0.000000e+00
    outer loop
      vertex   -4.845693e+00 -6.799021e+00 3.360606e-01
      vertex   -4.845693e+00 -6.799021e+00 2.113897e-01
      vertex   -4.845693e+00 -7.000000e+00 3.360606e-01
    endloop
  endfacet
  facet normal -1.000000e+00 0.000000e+00 0.000000e+00
    outer loop
      vertex   -4.845693e+00 -7.000000e+00 3.360606e-01
      vertex   -4.845693e+00 -6.799021e+00 2.113897e-01
      vertex   -4.845693e+00 -7.000000e+00 2.113897e-01
    endloop
  endfacet
  facet normal -1.000000e+00 0.000000e+00 0.000000e+00
    outer loop
      vertex   -4.845693e+00 3.840979e+00 2.113897e-01
      vertex   -4.845693e+00 3.840979e+00 3.360606e-01
      vertex   -4.845693e+00 4.000000e+00 2.113897e-01
    endloop
  endfacet
  facet normal -1.000000e+00 0.000000e+00 0.000000e+00
    outer loop
      vertex   -4.845693e+00 4.000000e+00 2.113897e-01
      vertex   -4.845693e+00 3.840979e+00 3.360606e-01
      vertex   -4.845693e+00 4.000000e+00 3.360606e-01
    endloop
  endfacet
  facet normal 0.000000e+00 -1.000000e+00 0.000000e+00
    outer loop
      vertex   -4.845693e+00 -7.000000e+00 3.360606e-01
      vertex   -4.845693e+00 -7.000000e+00 2.113897e-01
      vertex   1.948874e+00 -7.000000e+00 3.360606e-01
    endloop
  endfacet
  facet normal 0.000000e+00 -1.000000e+00 -0.000000e+00
    outer loop
      vertex   1.948874e+00 -7.000000e+00 3.360606e-01
      vertex   -4.845693e+00 -7.000000e+00 2.113897e-01
      vertex   1.948874e+00 -7.000000e+00 2.113897e-01
    endloop
  endfacet
  facet normal 1.000000e+00 -0.000000e+00 0.000000e+00
    outer loop
      vertex   1.948874e+00 3.840979e+00 3.360606e-01
      vertex   1.948874e+00 3.840979e+00 2.113897e-01
      vertex   1.948874e+00 4.000000e+00 3.360606e-01
    endloop
  endfacet
  facet normal 1.000000e+00 0.000000e+00 0.000000e+00
    outer loop
      vertex   1.948874e+00 4.000000e+00 3.360606e-01
      vertex   1.948874e+00 3.840979e+00 2.113897e-01
      vertex   1.948874e+00 4.000000e+00 2.113897e-01
    endloop
  endfacet
  facet normal 0.000000e+00 0.000000e+00 1.000000e+00
    outer loop
      vertex   -4.845693e+00 3.840979e+00 3.360606e-01
      vertex   1.948874e+00 3.840979e+00 3.360606e-01
      vertex   -4.845693e+00 4.000000e+00 3.360606e-01
    endloop
  endfacet
  facet normal -0.000000e+00 0.000000e+00 1.000000e+00
    outer loop
      vertex   -4.845693e+00 4.000000e+00 3.360606e-01
      vertex   1.948874e+00 3.840979e+00 3.360606e-01
      vertex   1.948874e+00 4.000000e+00 3.360606e-01
    endloop
  endfacet
  facet normal 0.000000e+00 1.000000e+00 0.000000e+00
    outer loop
      vertex   1.948874e+00 4.000000e+00 3.360606e-01
      vertex   1.948874e+00 4.000000e+00 2.113897e-01
      vertex   -4.845693e+00 4.000000e+00 3.360606e-01
    endloop
  endfacet
  facet normal 0.000000e+00 1.000000e+00 0.000000e+00
    outer loop
      vertex   -4.845693e+00 4.000000e+00 3.360606e-01
      vertex   1.948874e+00 4.000000e+00 2.113897e-01
      vertex   -4.845693e+00 4.000000e+00 2.113897e-01
    endloop
  endfacet
  facet normal -1.000000e+00 0.000000e+00 0.000000e+00
    outer loop
      vertex   -4.996311e+00 -6.658167e+00 2.231667e-01
      vertex   -4.996311e+00 3.747074e+00 2.231667e-01
      vertex   -4.996311e+00 3.840979e+00 0.000000e+00
    endloop
  endfacet
  facet normal -1.000000e+00 0.000000e+00 0.000000e+00
    outer loop
      vertex   -4.996311e+00 3.840979e+00 0.000000e+00
      vertex   -4.996311e+00 3.747074e+00 2.231667e-01
      vertex   -4.996311e+00 3.747074e+00 3.268839e-01
    endloop
  endfacet
  facet normal -1.000000e+00 0.000000e+00 0.000000e+00
    outer loop
      vertex   -4.996311e+00 3.840979e+00 0.000000e+00
      vertex   -4.996311e+00 3.747074e+00 3.268839e-01
      vertex   -4.996311e+00 3.840979e+00 3.100000e+00
    endloop
  endfacet
  facet normal -1.000000e+00 0.000000e+00 0.000000e+00
    outer loop
      vertex   -4.996311e+00 3.840979e+00 3.100000e+00
      vertex   -4.996311e+00 3.747074e+00 3.268839e-01
      vertex   -4.996311e+00 -6.658167e+00 3.268839e-01
    endloop
  endfacet
  facet normal -1.000000e+00 -0.000000e+00 0.000000e+00
    outer loop
      vertex   -4.996311e+00 3.840979e+00 3.100000e+00
      vertex   -4.996311e+00 -6.658167e+00 3.268839e-01
      vertex   -4.996311e+00 -6.799021e+00 3.100000e+00
    endloop
  endfacet
  facet normal -1.000000e+00 0.000000e+00 0.000000e+00
    outer loop
      vertex   -4.996311e+00 -6.799021e+00 3.100000e+00
      vertex   -4.996311e+00 -6.658167e+00 3.268839e-01
      vertex   -4.996311e+00 -6.799021e+00 0.000000e+00
    endloop
  endfacet
  facet normal -1.000000e+00 0.000000e+00 0.000000e+00
    outer loop
      vertex   -4.996311e+00 -6.799021e+00 0.000000e+00
      vertex   -4.996311e+00 -6.658167e+00 3.268839e-01
      vertex   -4.996311e+00 -6.658167e+00 2.231667e-01
    endloop
  endfacet
  facet normal -1.000000e+00 0.000000e+00 0.000000e+00
    outer loop
      vertex   -4.996311e+00 -6.799021e+00 0.000000e+00
      vertex   -4.996311e+00 -6.658167e+00 2.231667e-01
      vertex   -4.996311e+00 3.840979e+00 0.000000e+00
    endloop
  endfacet
  facet normal 0.000000e+00 1.000000e+00 -0.000000e+00
    outer loop
      vertex   -4.845693e+00 3.840979e+00 2.113897e-01
      vertex   -4.996311e+00 3.840979e+00 0.000000e+00
      vertex   -4.845693e+00 3.840979e+00 3.360606e-01
    endloop
  endfacet
  facet normal 0.000000e+00 1.000000e+00 0.000000e+00
    outer loop
      vertex   -4.845693e+00 3.840979e+00 3.360606e-01
      vertex   -4.996311e+00 3.840979e+00 0.000000e+00
      vertex   -4.996311e+00 3.840979e+00 3.100000e+00
    endloop
  endfacet
  facet normal 0.000000e+00 1.000000e+00 -0.000000e+00
    outer loop
      vertex   -4.845693e+00 3.840979e+00 3.360606e-01
      vertex   -4.996311e+00 3.840979e+00 3.100000e+00
      vertex   1.948874e+00 3.840979e+00 3.360606e-01
    endloop
  endfacet
  facet normal 0.000000e+00 1.000000e+00 -0.000000e+00
    outer loop
      vertex   1.948874e+00 3.840979e+00 3.360606e-01
      vertex   -4.996311e+00 3.840979e+00 3.100000e+00
      vertex   2.124988e+00 3.840979e+00 3.100000e+00
    endloop
  endfacet
  facet normal -0.000000e+00 1.000000e+00 0.000000e+00
    outer loop
      vertex   1.948874e+00 3.840979e+00 3.360606e-01
      vertex   2.124988e+00 3.840979e+00 3.100000e+00
      vertex   2.124988e+00 3.840979e+00 0.000000e+00
    endloop
  endfacet
  facet normal -0.000000e+00 1.000000e+00 0.000000e+00
    outer loop
      vertex   -4.845693e+00 3.840979e+00 2.113897e-01
      vertex   1.948874e+00 3.840979e+00 2.113897e-01
      vertex   -4.996311e+00 3.840979e+00 0.000000e+00
    endloop
  endfacet
  facet normal 0.000000e+00 1.000000e+00 0.000000e+00
    outer loop
      vertex   -4.996311e+00 3.840979e+00 0.000000e+00
      vertex   1.948874e+00 3.840979e+00 2.113897e-01
      vertex   2.124988e+00 3.840979e+00 0.000000e+00
    endloop
  endfacet
  facet normal 0.000000e+00 1.000000e+00 0.000000e+00
    outer loop
      vertex   2.124988e+00 3.840979e+00 0.000000e+00
      vertex   1.948874e+00 3.840979e+00 2.113897e-01
      vertex   1.948874e+00 3.840979e+00 3.360606e-01
    endloop
  endfacet
  facet normal 1.000000e+00 -0.000000e+00 0.000000e+00
    outer loop
      vertex   2.124988e+00 3.747074e+00 2.231667e-01
      vertex   2.124988e+00 3.840979e+00 0.000000e+00
      vertex   2.124988e+00 3.747074e+00 3.268839e-01
    endloop
  endfacet
  facet normal 1.000000e+00 -0.000000e+00 0.000000e+00
    outer loop
      vertex   2.124988e+00 3.747074e+00 3.268839e-01
      vertex   2.124988e+00 3.840979e+00 0.000000e+00
      vertex   2.124988e+00 3.840979e+00 3.100000e+00
    endloop
  endfacet
  facet normal 1.000000e+00 0.000000e+00 -0.000000e+00
    outer loop
      vertex   2.124988e+00 3.747074e+00 3.268839e-01
      vertex   2.124988e+00 3.840979e+00 3.100000e+00
      vertex   2.124988e+00 -6.658167e+00 3.268839e-01
    endloop
  endfacet
  facet normal 1.000000e+00 0.000000e+00 -0.000000e+00
    outer loop
      vertex   2.124988e+00 -6.658167e+00 3.268839e-01
      vertex   2.124988e+00 3.840979e+00 3.100000e+00
      vertex   2.124988e+00 -6.799021e+00 3.100000e+00
    endloop
  endfacet
  facet normal 1.000000e+00 0.000000e+00 0.000000e+00
    outer loop
      vertex   2.124988e+00 -6.658167e+00 3.268839e-01
      vertex   2.124988e+00 -6.799021e+00 3.100000e+00
      vertex   2.124988e+00 -6.799021e+00 0.000000e+00
    endloop
  endfacet
  facet normal 1.000000e+00 0.000000e+00 0.000000e+00
    outer loop
      vertex   2.124988e+00 3.747074e+00 2.231667e-01
      vertex   2.124988e+00 -6.658167e+00 2.231667e-01
      vertex   2.124988e+00 3.840979e+00 0.000000e+00
    endloop
  endfacet
  facet normal 1.000000e+00 0.000000e+00 0.000000e+00
    outer loop
      vertex   2.124988e+00 3.840979e+00 0.000000e+00
      vertex   2.124988e+00 -6.658167e+00 2.231667e-01
      vertex   2.124988e+00 -6.799021e+00 0.000000e+00
    endloop
  endfacet
  facet normal 1.000000e+00 0.000000e+00 0.000000e+00
    outer loop
      vertex   2.124988e+00 -6.799021e+00 0.000000e+00
      vertex   2.124988e+00 -6.658167e+00 2.231667e-01
      vertex   2.124988e+00 -6.658167e+00 3.268839e-01
    endloop
  endfacet
  facet normal -0.000000e+00 -1.000000e+00 0.000000e+00
    outer loop
      vertex   1.948874e+00 -6.799021e+00 2.113897e-01
      vertex   -4.845693e+00 -6.799021e+00 2.113897e-01
      vertex   -4.996311e+00 -6.799021e+00 0.000000e+00
    endloop
  endfacet
  facet normal 0.000000e+00 -1.000000e+00 0.000000e+00
    outer loop
      vertex   -4.996311e+00 -6.799021e+00 0.000000e+00
      vertex   -4.845693e+00 -6.799021e+00 2.113897e-01
      vertex   -4.845693e+00 -6.799021e+00 3.360606e-01
    endloop
  endfacet
  facet normal 0.000000e+00 -1.000000e+00 0.000000e+00
    outer loop
      vertex   -4.996311e+00 -6.799021e+00 0.000000e+00
      vertex   -4.845693e+00 -6.799021e+00 3.360606e-01
      vertex   -4.996311e+00 -6.799021e+00 3.100000e+00
    endloop
  endfacet
  facet normal 0.000000e+00 -1.000000e+00 0.000000e+00
    outer loop
      vertex   -4.996311e+00 -6.799021e+00 3.100000e+00
      vertex   -4.845693e+00 -6.799021e+00 3.360606e-01
      vertex   1.948874e+00 -6.799021e+00 3.360606e-01
    endloop
  endfacet
  facet normal 0.000000e+00 -1.000000e+00 0.000000e+00
    outer loop
      vertex   -4.996311e+00 -6.799021e+00 3.100000e+00
      vertex   1.948874e+00 -6.799021e+00 3.360606e-01
      vertex   2.124988e+00 -6.799021e+00 3.100000e+00
    endloop
  endfacet
  facet normal 0.000000e+00 -1.000000e+00 -0.000000e+00
    outer loop
      vertex   2.124988e+00 -6.799021e+00 3.100000e+00
      vertex   1.948874e+00 -6.799021e+00 3.360606e-01
      vertex   2.124988e+00 -6.799021e+00 0.000000e+00
    endloop
  endfacet
  facet normal 0.000000e+00 -1.000000e+00 0.000000e+00
    outer loop
      vertex   2.124988e+00 -6.799021e+00 0.000000e+00
      vertex   1.948874e+00 -6.799021e+00 3.360606e-01
      vertex   1.948874e+00 -6.799021e+00 2.113897e-01
    endloop
  endfacet
  facet normal 0.000000e+00 -1.000000e+00 0.000000e+00
    outer loop
      vertex   2.124988e+00 -6.799021e+00 0.000000e+00
      vertex   1.948874e+00 -6.799021e+00 2.113897e-01
      vertex   -4.996311e+00 -6.799021e+00 0.000000e+00
    endloop
  endfacet
  facet normal 0.000000e+00 0.000000e+00 -1.000000e+00
    outer loop
      vertex   2.124988e+00 -6.799021e+00 0.000000e+00
      vertex   -4.996311e+00 -6.799021e+00 0.000000e+00
      vertex   2.124988e+00 3.840979e+00 0.000000e+00
    endloop
  endfacet
  facet normal -0.000000e+00 0.000000e+00 -1.000000e+00
    outer loop
      vertex   2.124988e+00 3.840979e+00 0.000000e+00
      vertex   -4.996311e+00 -6.799021e+00 0.000000e+00
      vertex   -4.996311e+00 3.840979e+00 0.000000e+00
    endloop
  endfacet
  facet normal 0.000000e+00 -1.000000e+00 0.000000e+00
    outer loop
      vertex   -6.694426e-02 1.929954e+00 3.100000e+00
      vertex   1.000000e+00 1.929954e+00 3.100000e+00
      vertex   -6.694426e-02 1.929954e+00 3.200000e+00
    endloop
  endfacet
  facet normal 0.000000e+00 -1.000000e+00 0.000000e+00
    outer loop
      vertex   -6.694426e-02 1.929954e+00 3.200000e+00
      vertex   1.000000e+00 1.929954e+00 3.100000e+00
      vertex   1.000000e+00 1.929954e+00 3.200000e+00
    endloop
  endfacet
  facet normal -1.000000e+00 0.000000e+00 0.000000e+00
    outer loop
      vertex   -6.694426e-02 3.000000e+00 3.100000e+00
      vertex   -6.694426e-02 1.929954e+00 3.100000e+00
      vertex   -6.694426e-02 3.000000e+00 3.200000e+00
    endloop
  endfacet
  facet normal -1.000000e+00 -0.000000e+00 0.000000e+00
    outer loop
      vertex   -6.694426e-02 3.000000e+00 3.200000e+00
      vertex   -6.694426e-02 1.929954e+00 3.100000e+00
      vertex   -6.694426e-02 1.929954e+00 3.200000e+00
    endloop
  endfacet
  facet normal 0.000000e+00 1.000000e+00 -0.000000e+00
    outer loop
      vertex   1.000000e+00 3.000000e+00 3.100000e+00
      vertex   -6.694426e-02 3.000000e+00 3.100000e+00
      vertex   1.000000e+00 3.000000e+00 3.200000e+00
    endloop
  endfacet
  facet normal 0.000000e+00 1.000000e+00 0.000000e+00
    outer loop
      vertex   1.000000e+00 3.000000e+00 3.200000e+00
      vertex   -6.694426e-02 3.000000e+00 3.100000e+00
      vertex   -6.694426e-02 3.000000e+00 3.200000e+00
    endloop
  endfacet
  facet normal 1.000000e+00 0.000000e+00 0.000000e+00
    outer loop
      vertex   1.000000e+00 1.929954e+00 3.100000e+00
      vertex   1.000000e+00 3.000000e+00 3.100000e+00
      vertex   1.000000e+00 1.929954e+00 3.200000e+00
    endloop
  endfacet
  facet normal 1.000000e+00 -0.000000e+00 0.000000e+00
    outer loop
      vertex   1.000000e+00 1.929954e+00 3.200000e+00
      vertex   1.000000e+00 3.000000e+00 3.100000e+00
      vertex   1.000000e+00 3.000000e+00 3.200000e+00
    endloop
  endfacet
  facet normal 0.000000e+00 0.000000e+00 1.000000e+00
    outer loop
      vertex   1.000000e+00 3.000000e+00 3.200000e+00
      vertex   -6.694426e-02 3.000000e+00 3.200000e+00
      vertex   1.000000e+00 1.929954e+00 3.200000e+00
    endloop
  endfacet
  facet normal 0.000000e+00 0.000000e+00 1.000000e+00
    outer loop
      vertex   1.000000e+00 1.929954e+00 3.200000e+00
      vertex   -6.694426e-02 3.000000e+00 3.200000e+00
      vertex   -6.694426e-02 1.929954e+00 3.200000e+00
    endloop
  endfacet
  facet normal 0.000000e+00 -1.000000e+00 0.000000e+00
    outer loop
      vertex   -6.694426e-02 -6.070046e+00 3.100000e+00
      vertex   1.000000e+00 -6.070046e+00 3.100000e+00
      vertex   -6.694426e-02 -6.070046e+00 3.200000e+00
    endloop
  endfacet
  facet normal 0.000000e+00 -1.000000e+00 0.000000e+00
    outer loop
      vertex   -6.694426e-02 -6.070046e+00 3.200000e+00
      vertex   1.000000e+00 -6.070046e+00 3.100000e+00
      vertex   1.000000e+00 -6.070046e+00 3.200000e+00
    endloop
  endfacet
  facet normal -1.000000e+00 0.000000e+00 0.000000e+00
    outer loop
      vertex   -6.694426e-02 -5.000000e+00 3.100000e+00
      vertex   -6.694426e-02 -6.070046e+00 3.100000e+00
      vertex   -6.694426e-02 -5.000000e+00 3.200000e+00
    endloop
  endfacet
  facet normal -1.000000e+00 -0.000000e+00 0.000000e+00
    outer loop
      vertex   -6.694426e-02 -5.000000e+00 3.200000e+00
      vertex   -6.694426e-02 -6.070046e+00 3.100000e+00
      vertex   -6.694426e-02 -6.070046e+00 3.200000e+00
    endloop
  endfacet
  facet normal 0.000000e+00 1.000000e+00 -0.000000e+00
    outer loop
      vertex   1.000000e+00 -5.000000e+00 3.100000e+00
      vertex   -6.694426e-02 -5.000000e+00 3.100000e+00
      vertex   1.000000e+00 -5.000000e+00 3.200000e+00
    endloop
  endfacet
  facet normal 0.000000e+00 1.000000e+00 0.000000e+00
    outer loop
      vertex   1.000000e+00 -5.000000e+00 3.200000e+00
      vertex   -6.694426e-02 -5.000000e+00 3.100000e+00
      vertex   -6.694426e-02 -5.000000e+00 3.200000e+00
    endloop
  endfacet
  facet normal 1.000000e+00 0.000000e+00 0.000000e+00
    outer loop
      vertex   1.000000e+00 -6.070046e+00 3.100000e+00
      vertex   1.000000e+00 -5.000000e+00 3.100000e+00
      vertex   1.000000e+00 -6.070046e+00 3.200000e+00
    endloop
  endfacet
  facet normal 1.000000e+00 -0.000000e+00 0.000000e+00
    outer loop
      vertex   1.000000e+00 -6.070046e+00 3.200000e+00
      vertex   1.000000e+00 -5.000000e+00 3.100000e+00
      vertex   1.000000e+00 -5.000000e+00 3.200000e+00
    endloop
  endfacet
  facet normal 0.000000e+00 0.000000e+00 1.000000e+00
    outer loop
      vertex   1.000000e+00 -5.000000e+00 3.200000e+00
      vertex   -6.694426e-02 -5.000000e+00 3.200000e+00
      vertex   1.000000e+00 -6.070046e+00 3.200000e+00
    endloop
  endfacet
  facet normal 0.000000e+00 0.000000e+00 1.000000e+00
    outer loop
      vertex   1.000000e+00 -6.070046e+00 3.200000e+00
      vertex   -6.694426e-02 -5.000000e+00 3.200000e+00
      vertex   -6.694426e-02 -6.070046e+00 3.200000e+00
    endloop
  endfacet
  facet normal 0.000000e+00 -1.000000e+00 0.000000e+00
    outer loop
      vertex   -3.566944e+00 -6.070046e+00 3.100000e+00
      vertex   -2.500000e+00 -6.070046e+00 3.100000e+00
      vertex   -3.566944e+00 -6.070046e+00 3.200000e+00
    endloop
  endfacet
  facet normal 0.000000e+00 -1.000000e+00 0.000000e+00
    outer loop
      vertex   -3.566944e+00 -6.070046e+00 3.200000e+00
      vertex   -2.500000e+00 -6.070046e+00 3.100000e+00
      vertex   -2.500000e+00 -6.070046e+00 3.200000e+00
    endloop
  endfacet
  facet normal -1.000000e+00 0.000000e+00 0.000000e+00
    outer loop
      vertex   -3.566944e+00 -5.000000e+00 3.100000e+00
      vertex   -3.566944e+00 -6.070046e+00 3.100000e+00
      vertex   -3.566944e+00 -5.000000e+00 3.200000e+00
    endloop
  endfacet
  facet normal -1.000000e+00 -0.000000e+00 0.000000e+00
    outer loop
      vertex   -3.566944e+00 -5.000000e+00 3.200000e+00
      vertex   -3.566944e+00 -6.070046e+00 3.100000e+00
      vertex   -3.566944e+00 -6.070046e+00 3.200000e+00
    endloop
  endfacet
  facet normal 0.000000e+00 1.000000e+00 -0.000000e+00
    outer loop
      vertex   -2.500000e+00 -5.000000e+00 3.100000e+00
      vertex   -3.566944e+00 -5.000000e+00 3.100000e+00
      vertex   -2.500000e+00 -5.000000e+00 3.200000e+00
    endloop
  endfacet
  facet normal 0.000000e+00 1.000000e+00 0.000000e+00
    outer loop
      vertex   -2.500000e+00 -5.000000e+00 3.200000e+00
      vertex   -3.566944e+00 -5.000000e+00 3.100000e+00
      vertex   -3.566944e+00 -5.000000e+00 3.200000e+00
    endloop
  endfacet
  facet normal 1.000000e+00 0.000000e+00 0.000000e+00
    outer loop
      vertex   -2.500000e+00 -6.070046e+00 3.100000e+00
      vertex   -2.500000e+00 -5.000000e+00 3.100000e+00
      vertex   -2.500000e+00 -6.070046e+00 3.200000e+00
    endloop
  endfacet
  facet normal 1.000000e+00 -0.000000e+00 0.000000e+00
    outer loop
      vertex   -2.500000e+00 -6.070046e+00 3.200000e+00
      vertex   -2.500000e+00 -5.000000e+00 3.100000e+00
      vertex   -2.500000e+00 -5.000000e+00 3.200000e+00
    endloop
  endfacet
  facet normal 0.000000e+00 0.000000e+00 1.000000e+00
    outer loop
      vertex   -2.500000e+00 -5.000000e+00 3.200000e+00
      vertex   -3.566944e+00 -5.000000e+00 3.200000e+00
      vertex   -2.500000e+00 -6.070046e+00 3.200000e+00
    endloop
  endfacet
  facet normal 0.000000e+00 0.000000e+00 1.000000e+00
    outer loop
      vertex   -2.500000e+00 -6.070046e+00 3.200000e+00
      vertex   -3.566944e+00 -5.000000e+00 3.200000e+00
      vertex   -3.566944e+00 -6.070046e+00 3.200000e+00
    endloop
  endfacet
  facet normal 0.000000e+00 -1.000000e+00 0.000000e+00
    outer loop
      vertex   -3.566944e+00 1.929954e+00 3.100000e+00
      vertex   -2.500000e+00 1.929954e+00 3.100000e+00
      vertex   -3.566944e+00 1.929954e+00 3.200000e+00
    endloop
  endfacet
  facet normal 0.000000e+00 -1.000000e+00 0.000000e+00
    outer loop
      vertex   -3.566944e+00 1.929954e+00 3.200000e+00
      vertex   -2.500000e+00 1.929954e+00 3.100000e+00
      vertex   -2.500000e+00 1.929954e+00 3.200000e+00
    endloop
  endfacet
  facet normal -1.000000e+00 0.000000e+00 0.000000e+00
    outer loop
      vertex   -3.566944e+00 3.000000e+00 3.100000e+00
      vertex   -3.566944e+00 1.929954e+00 3.100000e+00
      vertex   -3.566944e+00 3.000000e+00 3.200000e+00
    endloop
  endfacet
  facet normal -1.000000e+00 -0.000000e+00 0.000000e+00
    outer loop
      vertex   -3.566944e+00 3.000000e+00 3.200000e+00
      vertex   -3.566944e+00 1.929954e+00 3.100000e+00
      vertex   -3.566944e+00 1.929954e+00 3.200000e+00
    endloop
  endfacet
  facet normal 0.000000e+00 1.000000e+00 -0.000000e+00
    outer loop
      vertex   -2.500000e+00 3.000000e+00 3.100000e+00
      vertex   -3.566944e+00 3.000000e+00 3.100000e+00
      vertex   -2.500000e+00 3.000000e+00 3.200000e+00
    endloop
  endfacet
  facet normal 0.000000e+00 1.000000e+00 0.000000e+00
    outer loop
      vertex   -2.500000e+00 3.000000e+00 3.200000e+00
      vertex   -3.566944e+00 3.000000e+00 3.100000e+00
      vertex   -3.566944e+00 3.000000e+00 3.200000e+00
    endloop
  endfacet
  facet normal 1.000000e+00 0.000000e+00 0.000000e+00
    outer loop
      vertex   -2.500000e+00 1.929954e+00 3.100000e+00
      vertex   -2.500000e+00 3.000000e+00 3.100000e+00
      vertex   -2.500000e+00 1.929954e+00 3.200000e+00
    endloop
  endfacet
  facet normal 1.000000e+00 -0.000000e+00 0.000000e+00
    outer loop
      vertex   -2.500000e+00 1.929954e+00 3.200000e+00
      vertex   -2.500000e+00 3.000000e+00 3.100000e+00
      vertex   -2.500000e+00 3.000000e+00 3.200000e+00
    endloop
  endfacet
  facet normal 0.000000e+00 0.000000e+00 1.000000e+00
    outer loop
      vertex   -2.500000e+00 3.000000e+00 3.200000e+00
      vertex   -3.566944e+00 3.000000e+00 3.200000e+00
      vertex   -2.500000e+00 1.929954e+00 3.200000e+00
    endloop
  endfacet
  facet normal 0.000000e+00 0.000000e+00 1.000000e+00
    outer loop
      vertex   -2.500000e+00 1.929954e+00 3.200000e+00
      vertex   -3.566944e+00 3.000000e+00 3.200000e+00
      vertex   -3.566944e+00 1.929954e+00 3.200000e+00
    endloop
  endfacet
endsolid
